<svg preserveAspectRatio="none" width="100%" height="100%" overflow="visible" style="display: block;" viewBox="0 0 22 20.4545" fill="none" xmlns="http://www.w3.org/2000/svg">
<g id="Couronne">
<path id="Vector" d="M3.36364 7.63636L7.72727 13.0909L11 4.36363L14.2727 13.0909L18.6364 7.63636L16.4545 19.6364H5.54545L3.36364 7.63636Z" fill="var(--fill-0, #A78BFA)" stroke="var(--stroke-0, #A78BFA)" stroke-width="1.63636" stroke-linejoin="round"/>
<path id="Vector_2" d="M1.36364 6.00001C2.11675 6.00001 2.72727 5.38949 2.72727 4.63637C2.72727 3.88326 2.11675 3.27274 1.36364 3.27274C0.610521 3.27274 0 3.88326 0 4.63637C0 5.38949 0.610521 6.00001 1.36364 6.00001Z" fill="var(--fill-0, #A78BFA)"/>
<path id="Vector_3" d="M11.0001 2.72727C11.7532 2.72727 12.3637 2.11675 12.3637 1.36364C12.3637 0.610521 11.7532 0 11.0001 0C10.247 0 9.63647 0.610521 9.63647 1.36364C9.63647 2.11675 10.247 2.72727 11.0001 2.72727Z" fill="var(--fill-0, #A78BFA)"/>
<path id="Vector_4" d="M20.6363 6.00001C21.3895 6.00001 22 5.38949 22 4.63637C22 3.88326 21.3895 3.27274 20.6363 3.27274C19.8832 3.27274 19.2727 3.88326 19.2727 4.63637C19.2727 5.38949 19.8832 6.00001 20.6363 6.00001Z" fill="var(--fill-0, #A78BFA)"/>
</g>
</svg>
