<svg preserveAspectRatio="none" width="100%" height="100%" overflow="visible" style="display: block;" viewBox="0 0 16 16" fill="none" xmlns="http://www.w3.org/2000/svg">
<g id="SVG" clip-path="url(#clip0_0_8)">
<path id="Vector" d="M13.5447 2.9132C12.5074 2.43704 11.4126 2.0975 10.2879 1.90307C10.267 1.89916 10.2459 1.90913 10.2356 1.9278C10.0949 2.178 9.93913 2.50433 9.83007 2.7608C8.60027 2.57667 7.37673 2.57667 6.1722 2.7608C6.06313 2.4986 5.90167 2.178 5.7604 1.9278C5.74969 1.90959 5.72892 1.89981 5.70807 1.90313C4.58325 2.09711 3.48846 2.43663 2.45127 2.91313C2.44239 2.91692 2.43492 2.92338 2.42987 2.9316C0.3556 6.03053 -0.212667 9.05327 0.0661333 12.0385C0.067726 12.0533 0.0752294 12.0668 0.0869333 12.0759C1.45547 13.081 2.78113 13.6911 4.0822 14.0955C4.10292 14.1017 4.1253 14.0944 4.13833 14.0771C4.44607 13.6569 4.7204 13.2137 4.95567 12.7477C4.96221 12.7348 4.96292 12.7197 4.95762 12.7062C4.95232 12.6927 4.94152 12.6822 4.92793 12.6772C4.49273 12.5121 4.0784 12.3109 3.6798 12.0823C3.66504 12.0737 3.65557 12.0582 3.65455 12.0411C3.65354 12.024 3.6611 12.0076 3.67473 11.9972C3.7586 11.9343 3.84253 11.869 3.9226 11.8029C3.93712 11.791 3.95716 11.7883 3.97433 11.7959C6.59287 12.9915 9.42767 12.9915 12.0153 11.7959C12.0325 11.7878 12.0528 11.7902 12.0676 11.8023C12.1477 11.8683 12.2316 11.9343 12.3161 11.9972C12.3298 12.0075 12.3375 12.0238 12.3366 12.0409C12.3357 12.058 12.3264 12.0735 12.3117 12.0823C11.913 12.3152 11.4953 12.514 11.0631 12.6765C11.0495 12.6817 11.0388 12.6925 11.0336 12.706C11.0284 12.7196 11.0293 12.7348 11.0359 12.7477C11.2762 13.213 11.5505 13.6562 11.8526 14.0765C11.8653 14.0942 11.8879 14.1019 11.9087 14.0955C13.2161 13.6911 14.5417 13.0809 15.9103 12.0759C15.9222 12.0672 15.9298 12.0538 15.9311 12.0391C16.2647 8.5878 15.3723 5.58987 13.5655 2.9322C13.561 2.92357 13.5537 2.9168 13.5447 2.91313V2.9132M5.34667 10.2208C4.55833 10.2208 3.90873 9.497 3.90873 8.60813C3.90873 7.71933 4.54573 6.99553 5.34673 6.99553C6.15393 6.99553 6.7972 7.72567 6.7846 8.6082C6.7846 9.497 6.1476 10.2208 5.34667 10.2208V10.2208M10.6632 10.2208C9.87487 10.2208 9.22527 9.497 9.22527 8.60813C9.22527 7.71933 9.8622 6.99553 10.6632 6.99553C11.4704 6.99553 12.1137 7.72567 12.1011 8.6082C12.1011 9.497 11.4704 10.2208 10.6632 10.2208V10.2208" fill="var(--fill-0, #5865F2)"/>
</g>
<defs>
<clipPath id="clip0_0_8">
<rect width="16" height="16" fill="white"/>
</clipPath>
</defs>
</svg>
