<svg preserveAspectRatio="none" width="100%" height="100%" overflow="visible" style="display: block;" viewBox="0 0 24 24" fill="none" xmlns="http://www.w3.org/2000/svg">
<g id="door_open_24dp_E3E3E3_FILL0_wght300_GRAD0_opsz24 1">
<path id="Vector" d="M11.626 12.626C11.7983 12.4535 11.8845 12.2448 11.8845 12C11.8845 11.7552 11.7983 11.5465 11.626 11.374C11.4535 11.2017 11.2448 11.1155 11 11.1155C10.7552 11.1155 10.5465 11.2017 10.374 11.374C10.2017 11.5465 10.1155 11.7552 10.1155 12C10.1155 12.2448 10.2017 12.4535 10.374 12.626C10.5465 12.7983 10.7552 12.8845 11 12.8845C11.2448 12.8845 11.4535 12.7983 11.626 12.626ZM7 20.5V19L13.2212 18.173C13.2981 18.1667 13.3637 18.1347 13.4182 18.077C13.4727 18.0193 13.5 17.952 13.5 17.875V6.6635C13.5 6.34933 13.401 6.073 13.203 5.8345C13.0048 5.59617 12.7571 5.46033 12.4598 5.427L7.30775 4.75V3.25L12.673 3.95775C13.3487 4.05892 13.9054 4.36208 14.3433 4.86725C14.7811 5.37242 15 5.96283 15 6.6385V17.8443C15 18.2891 14.8513 18.6814 14.5538 19.0212C14.2564 19.3609 13.8853 19.5628 13.4405 19.627L7 20.5ZM7 19H17V5.05775C17 4.96792 16.9712 4.89417 16.9135 4.8365C16.8558 4.77883 16.7821 4.75 16.6923 4.75H7.30775C7.21792 4.75 7.14417 4.77883 7.0865 4.8365C7.02883 4.89417 7 4.96792 7 5.05775V19ZM4.48075 20.5C4.26792 20.5 4.08975 20.4282 3.94625 20.2845C3.80258 20.141 3.73075 19.9628 3.73075 19.75C3.73075 19.5372 3.80258 19.359 3.94625 19.2155C4.08975 19.0718 4.26792 19 4.48075 19H5.5V5.05775C5.5 4.55908 5.67658 4.13308 6.02975 3.77975C6.38308 3.42658 6.80908 3.25 7.30775 3.25H16.6923C17.1909 3.25 17.6169 3.42658 17.9703 3.77975C18.3234 4.13308 18.5 4.55908 18.5 5.05775V19H19.5193C19.7321 19 19.9103 19.0718 20.0538 19.2155C20.1974 19.359 20.2693 19.5372 20.2693 19.75C20.2693 19.9628 20.1974 20.141 20.0538 20.2845C19.9103 20.4282 19.7321 20.5 19.5193 20.5H4.48075Z" fill="var(--fill-0, #E3E3E3)"/>
</g>
</svg>
