<svg preserveAspectRatio="none" width="100%" height="100%" overflow="visible" style="display: block;" viewBox="0 0 14.8867 21.167" fill="none" xmlns="http://www.w3.org/2000/svg">
<g id="Cadeau">
<path id="Subtract" d="M0 12.0293H6.47949V21.167H2.12695C0.952482 21.167 0 20.3387 0 19.3174V12.0293ZM14.8867 19.3174C14.8867 20.3386 13.9342 21.1669 12.7598 21.167H8.40723V12.0293H14.8867V19.3174ZM10.3672 0C11.9271 0.000129539 13.1919 1.26443 13.1924 2.82422C13.1924 4.08391 12.3581 5.0781 11.3379 5.70605C11.314 5.72078 11.2889 5.73459 11.2646 5.74902H13.0254C14.053 5.74902 14.8867 6.70156 14.8867 7.87598V10.1016H8.40723V5.74902H6.47949V10.1016H0V7.87598C5.77171e-05 6.70172 0.832922 5.74929 1.86035 5.74902H3.62207C3.59775 5.73457 3.57279 5.7208 3.54883 5.70605C2.52854 5.07811 1.69434 4.08395 1.69434 2.82422C1.69477 1.26453 2.95883 0.000291615 4.51855 0C5.72708 0 6.71566 0.849733 7.3457 1.84375C7.37865 1.89574 7.41071 1.9492 7.44238 2.00293C7.47412 1.94907 7.50702 1.89586 7.54004 1.84375C8.17004 0.849828 9.1588 0.000119199 10.3672 0ZM4.51855 1.92773C4.02395 1.92803 3.62251 2.32965 3.62207 2.82422C3.62207 3.1593 3.8523 3.62816 4.55957 4.06348C5.03226 4.35431 5.65879 4.58185 6.38574 4.69824C6.26101 3.97897 6.01901 3.35289 5.7168 2.87598C5.25188 2.14252 4.77797 1.92773 4.51855 1.92773ZM10.3672 1.92773C10.1077 1.92787 9.6337 2.14281 9.16895 2.87598C8.86681 3.35287 8.6247 3.97908 8.5 4.69824C9.22729 4.58186 9.85432 4.35444 10.3271 4.06348C11.0343 3.62817 11.2637 3.15928 11.2637 2.82422C11.2632 2.32955 10.8619 1.92786 10.3672 1.92773Z" fill="var(--fill-0, #A78BFA)"/>
</g>
</svg>
