<svg preserveAspectRatio="none" width="100%" height="100%" overflow="visible" style="display: block;" viewBox="0 0 16.6667 13.3333" fill="none" xmlns="http://www.w3.org/2000/svg">
<g id="Container">
<path id="Icon" d="M5.83333 11.6667H15V11.6667V11.6667V9.4375H5.83333V11.6667V11.6667M1.66667 3.89583H4.16667V1.66667H1.66667V1.66667V1.66667V3.89583V3.89583M1.66667 7.79167H4.16667V5.5625H1.66667V7.79167V7.79167M1.66667 11.6667H4.16667V9.4375H1.66667V11.6667V11.6667V11.6667V11.6667M5.83333 7.79167H15V5.5625H5.83333V7.79167V7.79167M5.83333 3.89583H15V1.66667V1.66667V1.66667H5.83333V3.89583V3.89583M1.66667 13.3333C1.20833 13.3333 0.815972 13.1701 0.489583 12.8438C0.163194 12.5174 0 12.125 0 11.6667V1.66667C0 1.20833 0.163194 0.815972 0.489583 0.489583C0.815972 0.163194 1.20833 0 1.66667 0H15C15.4583 0 15.8507 0.163194 16.1771 0.489583C16.5035 0.815972 16.6667 1.20833 16.6667 1.66667V11.6667C16.6667 12.125 16.5035 12.5174 16.1771 12.8438C15.8507 13.1701 15.4583 13.3333 15 13.3333H1.66667V13.3333" fill="var(--fill-0, #A78BFA)"/>
</g>
</svg>
