<svg preserveAspectRatio="none" width="100%" height="100%" overflow="visible" style="display: block;" viewBox="0 0 74.0899 11.2834" fill="none" xmlns="http://www.w3.org/2000/svg">
<g id="TextLogo" clip-path="url(#clip0_0_21)">
<path id="Vector" d="M0 11.1108V0.822466H4.71048C5.3884 0.822466 5.92175 0.932128 6.31055 1.15145C6.69935 1.36081 6.97351 1.65988 7.13302 2.04869C7.29253 2.42752 7.37228 2.87614 7.37228 3.39454C7.37228 3.83319 7.31246 4.22199 7.19283 4.56094C7.0732 4.88993 6.88379 5.16409 6.62458 5.38341C6.37535 5.59276 6.0364 5.73731 5.60772 5.81707V5.87689C6.14606 5.96661 6.54484 6.14107 6.80403 6.40028C7.0732 6.6495 7.25265 6.94858 7.34237 7.29751C7.43209 7.64644 7.47696 8.0153 7.47696 8.4041C7.47696 8.75303 7.43708 9.09198 7.35732 9.42097C7.28754 9.73999 7.15296 10.0291 6.95357 10.2883C6.75419 10.5375 6.46508 10.7369 6.08624 10.8865C5.71738 11.036 5.22889 11.1108 4.62076 11.1108H0ZM0.957051 10.2733H4.47122C4.99959 10.2733 5.41331 10.2036 5.71239 10.064C6.01147 9.92441 6.22083 9.71008 6.34046 9.42097C6.46009 9.12189 6.5199 8.74804 6.5199 8.29942C6.5199 7.83086 6.45012 7.45204 6.31055 7.16293C6.18095 6.87381 5.96661 6.66446 5.66753 6.53486C5.36845 6.39529 4.96969 6.32551 4.47122 6.32551H0.957051V10.2733ZM0.957051 5.47313H4.42636C4.86501 5.47313 5.22889 5.40335 5.51799 5.26378C5.81707 5.11424 6.04138 4.8999 6.19092 4.62076C6.34046 4.33165 6.41523 3.98273 6.41523 3.57399C6.41523 3.13533 6.35541 2.77644 6.23578 2.4973C6.12613 2.20819 5.92674 1.99883 5.63762 1.86924C5.34852 1.73964 4.94477 1.67484 4.42636 1.67484H0.957051V5.47313ZM12.2724 11.2304C11.6843 11.2304 11.1958 11.1706 10.807 11.0509C10.4182 10.9313 10.1291 10.712 9.93963 10.393C9.76019 10.074 9.67046 9.62036 9.67046 9.03217C9.67046 8.46392 9.73527 8.02029 9.86486 7.70127C9.99447 7.37228 10.2238 7.13801 10.5527 6.99843C10.8917 6.85886 11.3603 6.78908 11.9584 6.78908C12.0681 6.78908 12.2376 6.79407 12.4668 6.80403C12.6961 6.80403 12.9603 6.80902 13.2594 6.81899C13.5585 6.82895 13.8575 6.83893 14.1566 6.84889C14.4657 6.84889 14.7548 6.85388 15.0239 6.86385V6.2956C15.0239 5.79713 14.994 5.40833 14.9342 5.12919C14.8744 4.84008 14.7548 4.62575 14.5753 4.48617C14.4059 4.33664 14.1566 4.24691 13.8276 4.217C13.4987 4.17713 13.075 4.15719 12.5566 4.15719C12.3273 4.15719 12.0631 4.16715 11.764 4.1871C11.4649 4.19706 11.1708 4.217 10.8817 4.24691C10.6026 4.26685 10.3683 4.29177 10.1789 4.32168V3.55903C10.5278 3.49922 10.9366 3.45435 11.4051 3.42445C11.8737 3.38457 12.3672 3.36463 12.8856 3.36463C13.404 3.36463 13.8426 3.39454 14.2015 3.45435C14.5604 3.51417 14.8545 3.60888 15.0837 3.73848C15.3131 3.86807 15.4875 4.04255 15.6071 4.26187C15.7268 4.48119 15.8116 4.75535 15.8613 5.08433C15.9112 5.41332 15.9361 5.80212 15.9361 6.25074V11.1108H15.1286L15.0837 9.95931H15.009C14.8594 10.3381 14.6302 10.6223 14.3211 10.8117C14.022 10.9911 13.6881 11.1058 13.3192 11.1556C12.9603 11.2055 12.6114 11.2304 12.2724 11.2304ZM12.5267 10.4528C12.8357 10.4528 13.1348 10.4378 13.4239 10.4079C13.713 10.378 13.9672 10.3082 14.1865 10.1986C14.4059 10.0789 14.5753 9.90448 14.6949 9.67518C14.8146 9.42596 14.8994 9.16675 14.9492 8.89758C14.999 8.62841 15.0239 8.32434 15.0239 7.98539V7.49191H12.1977C11.759 7.49191 11.4201 7.52681 11.1808 7.59659C10.9415 7.66637 10.7771 7.80594 10.6873 8.0153C10.5976 8.22465 10.5527 8.54368 10.5527 8.97235C10.5527 9.38109 10.6026 9.69513 10.7023 9.91445C10.812 10.1238 11.0064 10.2684 11.2855 10.3481C11.5746 10.4179 11.9883 10.4528 12.5267 10.4528ZM19.368 11.1108V4.27682H17.7979V3.48426H19.368V1.27108H20.2802V3.48426H22.1345V4.27682H20.2802V11.1108H19.368ZM24.659 11.1108V4.27682H23.0888V3.48426H24.659V1.27108H25.5712V3.48426H27.4255V4.27682H25.5712V11.1108H24.659ZM29.3369 11.1108V0H30.2491V11.1108H29.3369ZM36.1586 11.2304C35.5604 11.2304 35.062 11.1905 34.6632 11.1108C34.2645 11.041 33.9405 10.9164 33.6912 10.7369C33.442 10.5575 33.2526 10.3182 33.1229 10.0191C33.0033 9.71008 32.9186 9.33623 32.8687 8.89758C32.8289 8.44896 32.8089 7.92059 32.8089 7.31246C32.8089 6.58471 32.8388 5.9716 32.8986 5.47313C32.9584 4.9647 33.0881 4.55595 33.2874 4.24691C33.4968 3.93787 33.8258 3.71356 34.2744 3.57399C34.7331 3.43441 35.3561 3.36463 36.1436 3.36463C36.7119 3.36463 37.1754 3.40949 37.5343 3.49922C37.9033 3.57897 38.1923 3.71356 38.4017 3.90297C38.6211 4.08242 38.7805 4.32667 38.8802 4.63571C38.98 4.94476 39.0447 5.3186 39.0746 5.75726C39.1045 6.19591 39.1194 6.70932 39.1194 7.29751V7.61154H33.7211C33.7211 8.18976 33.7461 8.66331 33.7959 9.03217C33.8557 9.40102 33.9654 9.69014 34.1248 9.89949C34.2944 10.1088 34.5536 10.2534 34.9024 10.3332C35.2613 10.4129 35.7399 10.4528 36.338 10.4528C36.5873 10.4528 36.8614 10.4428 37.1605 10.4229C37.4596 10.4029 37.7537 10.383 38.0428 10.3631C38.3319 10.3332 38.5912 10.2983 38.8204 10.2584V11.021C38.6211 11.0609 38.3717 11.0958 38.0727 11.1257C37.7736 11.1656 37.4596 11.1905 37.1306 11.2005C36.8016 11.2204 36.4776 11.2304 36.1586 11.2304ZM38.2372 7.17788V6.6844C38.2372 6.11615 38.2024 5.66254 38.1325 5.32359C38.0627 4.98464 37.9481 4.73043 37.7885 4.56094C37.6291 4.39146 37.4098 4.28181 37.1306 4.23196C36.8614 4.17214 36.5175 4.14223 36.0988 4.14223C35.5705 4.14223 35.1467 4.17713 34.8277 4.24691C34.5087 4.31669 34.2695 4.45128 34.1099 4.65067C33.9504 4.84008 33.8457 5.11424 33.7959 5.47313C33.7461 5.83203 33.7211 6.31055 33.7211 6.90871H38.5213L38.2372 7.17788ZM41.6566 11.1108V3.48426H42.4641L42.509 4.65067H42.5837C42.6635 4.4114 42.7881 4.19706 42.9576 4.00765C43.137 3.80826 43.3813 3.65374 43.6903 3.54408C44.0094 3.42445 44.4281 3.36463 44.9464 3.36463C45.6543 3.36463 46.1777 3.46432 46.5166 3.66371C46.8656 3.8631 47.0998 4.19209 47.2194 4.65067H47.3092C47.389 4.4114 47.5185 4.19706 47.698 4.00765C47.8873 3.80826 48.1416 3.65374 48.4606 3.54408C48.7896 3.42445 49.2133 3.36463 49.7317 3.36463C50.4295 3.36463 50.9529 3.46931 51.3019 3.67866C51.6508 3.87805 51.88 4.19706 51.9897 4.63571C52.0994 5.06439 52.1542 5.62766 52.1542 6.32551V11.1108H51.242V6.60963C51.242 6.07129 51.2221 5.64262 51.1822 5.32359C51.1424 5.00457 51.0576 4.76531 50.928 4.60581C50.7985 4.43632 50.6089 4.32667 50.3598 4.27682C50.1205 4.217 49.8014 4.1871 49.4027 4.1871C48.9042 4.1871 48.5154 4.25688 48.2363 4.39645C47.9572 4.52605 47.7578 4.72045 47.6381 4.97965C47.5185 5.22888 47.4437 5.53794 47.4138 5.9068C47.3839 6.27566 47.369 6.69436 47.369 7.16293V11.1108H46.4568V6.60963C46.4568 6.07129 46.4319 5.64262 46.382 5.32359C46.3422 5.00457 46.2574 4.76531 46.1278 4.60581C46.0082 4.43632 45.8237 4.32667 45.5745 4.27682C45.3352 4.217 45.0162 4.1871 44.6175 4.1871C44.1189 4.1871 43.7301 4.26187 43.451 4.4114C43.172 4.55098 42.9675 4.75534 42.8379 5.02452C42.7183 5.28372 42.6435 5.59775 42.6136 5.96661C42.5837 6.32551 42.5688 6.72427 42.5688 7.16293V11.1108H41.6566ZM55.0076 1.15145V0H56.0244V1.15145H55.0076ZM55.0524 11.1108V3.48426H55.9646V11.1108H55.0524ZM58.8684 11.1108V3.48426H59.6759L59.7208 4.65067H59.7955C59.8953 4.40144 60.0348 4.18211 60.2143 3.9927C60.4038 3.80328 60.6729 3.65374 61.0218 3.54408C61.3807 3.42445 61.8442 3.36463 62.4125 3.36463C62.9908 3.36463 63.4544 3.42445 63.8032 3.54408C64.1621 3.65374 64.4363 3.8282 64.6257 4.06746C64.8152 4.29676 64.9397 4.60082 64.9995 4.97965C65.0694 5.35849 65.1042 5.80711 65.1042 6.32551V11.1108H64.192V6.60963C64.192 6.07129 64.1671 5.64262 64.1172 5.32359C64.0675 5.00457 63.9677 4.76531 63.8182 4.60581C63.6686 4.43632 63.4544 4.32667 63.1751 4.27682C62.896 4.217 62.5321 4.1871 62.0835 4.1871C61.5253 4.1871 61.0866 4.26187 60.7676 4.4114C60.4586 4.55098 60.2342 4.75534 60.0946 5.02452C59.9551 5.28372 59.8654 5.59775 59.8255 5.96661C59.7955 6.32551 59.7806 6.72427 59.7806 7.16293V11.1108H58.8684ZM70.5427 11.2304C69.9544 11.2304 69.4709 11.1706 69.0921 11.0509C68.7132 10.9313 68.4192 10.7269 68.2098 10.4378C68.0005 10.1487 67.851 9.74995 67.7612 9.24152C67.6814 8.73309 67.6416 8.08508 67.6416 7.29751C67.6416 6.51991 67.6814 5.87689 67.7612 5.36846C67.851 4.85006 68.0005 4.4463 68.2098 4.15719C68.4192 3.86807 68.7082 3.66371 69.0772 3.54408C69.4559 3.42445 69.9395 3.36463 70.5277 3.36463C70.9663 3.36463 71.3551 3.39953 71.6941 3.46931C72.033 3.53909 72.3222 3.65872 72.5614 3.8282C72.8007 3.99768 72.9801 4.22697 73.0998 4.51608H73.1746V0H74.0867V11.1108H73.2942L73.2493 9.95931H73.1746C73.025 10.3282 72.8157 10.6023 72.5465 10.7818C72.2773 10.9612 71.9682 11.0809 71.6193 11.1407C71.2704 11.2005 70.9115 11.2304 70.5427 11.2304ZM70.8717 10.4079C71.4498 10.4079 71.9084 10.3332 72.2474 10.1836C72.5962 10.0241 72.8306 9.77487 72.9502 9.43592C73.0598 9.1169 73.1247 8.78294 73.1446 8.43401C73.1645 8.07511 73.1746 7.64644 73.1746 7.14797C73.1746 6.78908 73.1645 6.45013 73.1446 6.13111C73.1247 5.81208 73.0699 5.52796 72.9801 5.27873C72.8405 4.87997 72.5962 4.60082 72.2474 4.44131C71.9084 4.27183 71.4349 4.1871 70.8268 4.1871C70.3382 4.1871 69.9395 4.22199 69.6305 4.29177C69.3314 4.36155 69.1021 4.50113 68.9426 4.71048C68.793 4.91984 68.6884 5.23387 68.6286 5.65258C68.5787 6.06133 68.5538 6.60963 68.5538 7.29751C68.5538 7.98539 68.5837 8.53869 68.6435 8.9574C68.7033 9.36614 68.808 9.67518 68.9575 9.88454C69.117 10.0939 69.3512 10.2335 69.6604 10.3032C69.9694 10.373 70.3731 10.4079 70.8717 10.4079Z" fill="var(--fill-0, #F4F4F5)"/>
</g>
<defs>
<clipPath id="clip0_0_21">
<rect width="74.0899" height="11.2834" fill="white"/>
</clipPath>
</defs>
</svg>
