<svg preserveAspectRatio="none" width="100%" height="100%" overflow="visible" style="display: block;" viewBox="0 0 34.0434 25.8914" fill="none" xmlns="http://www.w3.org/2000/svg">
<g id="SymboleBattlemind">
<path id="Vector" d="M29.2331 6.57643L33.0525 4.03531C33.3008 3.87006 33.6332 4.04812 33.6332 4.34644V7.60206C33.6332 7.72687 33.5709 7.84345 33.4671 7.91279L18.6575 17.808L7.26774 25.4182C7.20628 25.4593 7.13404 25.4812 7.06013 25.4812H2.12892C1.75832 25.4812 1.61373 24.9998 1.92298 24.7956L13.4621 17.1755" stroke="var(--stroke-0, #F4F4F5)" stroke-width="0.820422" stroke-miterlimit="10" stroke-linecap="round"/>
<path id="Vector_2" d="M16.5471 6.61528L19.5441 4.61728C19.6693 4.53381 19.8323 4.53358 19.9577 4.61668L29.243 10.7681L30.6245 11.7246C30.7253 11.7944 30.7855 11.9092 30.7855 12.0318V22.0762C30.7855 22.2019 30.7223 22.3191 30.6173 22.3883L26.1275 25.345C26.0021 25.4275 25.8395 25.4271 25.7146 25.3438L4.01756 10.8791C3.91358 10.8098 3.85114 10.6931 3.85114 10.5681V6.49661L16.5471 14.9606" stroke="var(--stroke-0, #F4F4F5)" stroke-width="0.820422" stroke-miterlimit="10" stroke-linecap="round"/>
<path id="Vector_3" d="M30.1922 5.9297V2.45193C30.1922 2.15281 29.8582 1.97492 29.61 2.14177L22.9543 6.61525" stroke="var(--stroke-0, #F4F4F5)" stroke-width="0.820422" stroke-miterlimit="10"/>
<path id="Vector_4" d="M3.85117 6.49661L0.579124 4.35285C0.473724 4.2838 0.410211 4.16627 0.410211 4.04026V0.785235C0.410211 0.487234 0.74192 0.309108 0.990332 0.473696L19.5437 12.7667C19.6691 12.8498 19.8322 12.8496 19.9574 12.7661L22.9543 10.7681" stroke="var(--stroke-0, #F4F4F5)" stroke-width="0.820422" stroke-miterlimit="10" stroke-linecap="round"/>
<path id="Vector_5" d="M19.7508 8.75102L13.5488 4.61636C13.4243 4.53335 13.2622 4.53262 13.137 4.61452L10.1689 6.55517" stroke="var(--stroke-0, #F4F4F5)" stroke-width="0.820422" stroke-miterlimit="10" stroke-linecap="round"/>
<path id="Vector_6" d="M21.0222 22.2155L16.7678 25.3201C16.6363 25.416 16.4579 25.4158 16.3266 25.3196L12.0768 22.2049" stroke="var(--stroke-0, #F4F4F5)" stroke-width="0.820422" stroke-miterlimit="10"/>
<path id="Vector_7" d="M18.7092 17.7423C18.7092 17.7423 20.2733 19.191 20.9397 19.4997C21.6062 19.8085 24.391 21.1443 26.5027 19.1737C28.6144 17.2032 27.5362 14.306 27.4424 14.0958L26.6865 12.4432" stroke="var(--stroke-0, #F4F4F5)" stroke-width="0.820422" stroke-miterlimit="10"/>
<path id="Vector_8" d="M8.86194 20.2072C8.09863 20.1311 7.29038 19.8432 6.57301 19.1738C4.46135 17.2032 5.53954 14.306 5.63328 14.0958L6.3892 12.4433" stroke="var(--stroke-0, #F4F4F5)" stroke-width="0.820422" stroke-miterlimit="10"/>
</g>
</svg>
