<svg preserveAspectRatio="none" width="100%" height="100%" overflow="visible" style="display: block;" viewBox="0 0 47.3146 35.9846" fill="none" xmlns="http://www.w3.org/2000/svg">
<g id="SymboleBattlemind">
<path id="Vector" d="M40.6291 9.1401L45.9374 5.60836C46.2826 5.37869 46.7445 5.62616 46.7445 6.04079V10.5655C46.7445 10.739 46.6579 10.901 46.5136 10.9974L25.9308 24.7501L10.101 35.327C10.0155 35.384 9.91514 35.4145 9.81242 35.4145H2.95887C2.44381 35.4145 2.24284 34.7455 2.67265 34.4617L18.7101 23.8709" stroke="var(--stroke-0, #A78BFA)" stroke-width="1.14025" stroke-miterlimit="10" stroke-linecap="round"/>
<path id="Vector_2" d="M40.6428 14.9659L42.5629 16.2951C42.703 16.3921 42.7866 16.5517 42.7866 16.7222V30.6821C42.7866 30.8568 42.6988 31.0198 42.5529 31.1159L36.3128 35.2252C36.1386 35.3399 35.9126 35.3393 35.739 35.2235L5.58376 15.12C5.43925 15.0237 5.35246 14.8616 5.35246 14.6879V9.02915" stroke="var(--stroke-0, #A78BFA)" stroke-width="1.14025" stroke-miterlimit="10" stroke-linecap="round"/>
<path id="Vector_3" d="M41.9621 8.24127V3.40776C41.9621 2.99203 41.498 2.74479 41.153 2.97668L31.9027 9.19406" stroke="var(--stroke-0, #A78BFA)" stroke-width="1.14025" stroke-miterlimit="10"/>
<path id="Vector_4" d="M5.35247 9.02918L0.804885 6.04973C0.658395 5.95375 0.570124 5.7904 0.570124 5.61528V1.09134C0.570124 0.677172 1.03114 0.429607 1.37639 0.658357L27.1624 17.7435C27.3367 17.8591 27.5633 17.8587 27.7374 17.7427L31.9027 14.9659" stroke="var(--stroke-0, #A78BFA)" stroke-width="1.14025" stroke-miterlimit="10" stroke-linecap="round"/>
<path id="Vector_5" d="M27.4502 12.1624L18.8305 6.41596C18.6575 6.30058 18.4323 6.29957 18.2582 6.4134L14.1331 9.11057" stroke="var(--stroke-0, #A78BFA)" stroke-width="1.14025" stroke-miterlimit="10" stroke-linecap="round"/>
<path id="Vector_6" d="M29.2174 30.8758L23.3045 35.1906C23.1218 35.3239 22.8738 35.3236 22.6913 35.1899L16.7848 30.8611" stroke="var(--stroke-0, #A78BFA)" stroke-width="1.14025" stroke-miterlimit="10"/>
<path id="Vector_7" d="M26.0026 24.6588C26.0026 24.6588 28.1765 26.6722 29.1028 27.1013C30.029 27.5304 33.8995 29.387 36.8343 26.6483C39.7692 23.9095 38.2706 19.8829 38.1404 19.5907L37.0898 17.294" stroke="var(--stroke-0, #A78BFA)" stroke-width="1.14025" stroke-miterlimit="10"/>
<path id="Vector_8" d="M12.3166 28.0846C11.2558 27.9788 10.1324 27.5787 9.13541 26.6483C6.20056 23.9095 7.69907 19.883 7.82935 19.5908L8.87994 17.294" stroke="var(--stroke-0, #A78BFA)" stroke-width="1.14025" stroke-miterlimit="10"/>
<path id="Vector_9" d="M40.6428 14.9659L27.7379 6.41637C27.5636 6.30086 27.337 6.30119 27.163 6.4172L22.9976 9.19408" stroke="var(--stroke-0, #A78BFA)" stroke-width="1.14025" stroke-miterlimit="10" stroke-linecap="round"/>
<path id="Vector_10" d="M5.35246 9.02915L22.9976 20.7926" stroke="var(--stroke-0, #A78BFA)" stroke-width="1.14025" stroke-miterlimit="10" stroke-linecap="round"/>
</g>
</svg>
